<svg version="1.2" xmlns="http://www.w3.org/2000/svg" viewBox="0 0 24 24" width="24" height="24">
	<title>checkbox-marked-circle-outline-svg</title>
	<style>
		.s0 { fill: #333333 } 
	</style>
	<path id="Layer" fill-rule="evenodd" class="s0" d="m22 12c0 1.3-0.3 2.6-0.8 3.8-0.5 1.2-1.2 2.3-2.1 3.3-1 0.9-2.1 1.6-3.3 2.1-1.2 0.5-2.5 0.8-3.8 0.8-1.3 0-2.6-0.3-3.8-0.8-1.2-0.5-2.3-1.2-3.3-2.1-0.9-1-1.6-2.1-2.1-3.3-0.5-1.2-0.8-2.5-0.8-3.8 0-1.3 0.3-2.6 0.8-3.8 0.5-1.2 1.2-2.3 2.1-3.3 1-0.9 2.1-1.6 3.3-2.1 1.2-0.5 2.5-0.8 3.8-0.8q2 0 3.8 0.7l-1.6 1.6q-1.1-0.3-2.2-0.3-1.6 0-3.1 0.6-1.4 0.6-2.6 1.7-1.1 1.2-1.7 2.6-0.6 1.5-0.6 3.1 0 1.6 0.6 3.1 0.6 1.4 1.7 2.6 1.2 1.1 2.6 1.7 1.5 0.6 3.1 0.6 1.6 0 3.1-0.6 1.4-0.6 2.6-1.7 1.1-1.2 1.7-2.6 0.6-1.5 0.6-3.1m-9 1.2l8.6-8.6 1.4 1.4-10 10-4.5-4.5 1.4-1.4z"/>
</svg>