<svg version="1.2" xmlns="http://www.w3.org/2000/svg" viewBox="0 0 24 24" width="48" height="48">
	<title>hand-heart-svg</title>
	<style>
		.s0 { fill: #2f7393 } 
	</style>
	<path id="Layer" class="s0" d="m20 17q0.9 0 1.4 0.6 0.6 0.6 0.6 1.4l-8 3-7-2v-9h1.9l7.3 2.7q0.8 0.3 0.8 1.1 0 0.5-0.3 0.8-0.4 0.4-0.9 0.4h-2.8l-1.7-0.7-0.4 1 2.1 0.7zm-4-13.8q1.1-1.2 2.7-1.2 1.4 0 2.3 1 0.9 1 1 2.3 0 1-1 2.5-1 1.4-2 2.4-0.9 0.9-3 2.8-2.1-1.9-3.1-2.8-0.9-1-1.9-2.4-1-1.5-1-2.5 0-1.4 1-2.3 0.9-0.9 2.3-1 1.6 0 2.7 1.2zm-15 7.8h4v11h-4z"/>
</svg>