<svg version="1.2" xmlns="http://www.w3.org/2000/svg" viewBox="0 0 24 24" width="48" height="48">
	<title>hand-heart-outline-svg</title>
	<style>
		.s0 { fill: #2f7393 } 
	</style>
	<path id="Layer" fill-rule="evenodd" class="s0" d="m16 3.2q1.1-1.2 2.7-1.2 1.4 0 2.3 1 0.9 1 1 2.3 0 1-1 2.5-1 1.4-2 2.4-0.9 0.9-3 2.8-2.1-1.9-3.1-2.8-0.9-1-1.9-2.4-1-1.5-1-2.5 0-1.4 1-2.3 0.9-0.9 2.3-1 1.6 0 2.7 1.2zm6 15.8v1l-8 2.5-7-1.9v1.4h-6v-11h8l6.1 2.3c1.2 0.4 1.9 1.5 1.9 2.7h2c1.7 0 3 1.3 3 3zm-17 1v-7h-2v7zm14.9-1.4c-0.2-0.4-0.5-0.6-0.9-0.6h-5.3q-0.9 0-1.6-0.3l-2.4-0.7 0.6-1.9 2.4 0.7c0.3 0.1 2.3 0.2 2.3 0.2 0-0.4-0.2-0.7-0.6-0.8l-5.8-2.2h-1.6v5.5l7 1.9z"/>
</svg>