<svg version="1.2" xmlns="http://www.w3.org/2000/svg" viewBox="0 0 24 24" width="24" height="24">
	<title>map-marker-svg</title>
	<style>
		.s0 { fill: #333333 } 
	</style>
	<path id="Layer" fill-rule="evenodd" class="s0" d="m14.7 2.5q1.3 0.6 2.2 1.6 1 0.9 1.6 2.2 0.5 1.3 0.5 2.7c0 5.3-7 13-7 13 0 0-7-7.8-7-13q0-1.4 0.5-2.7 0.6-1.3 1.6-2.2 0.9-1 2.2-1.6 1.3-0.5 2.7-0.5 1.4 0 2.7 0.5zm-1.7 8.8q0.4-0.2 0.8-0.5 0.3-0.4 0.5-0.8 0.2-0.5 0.2-1 0-0.5-0.2-1-0.2-0.4-0.5-0.8-0.4-0.3-0.8-0.5-0.5-0.2-1-0.2-0.5 0-1 0.2-0.4 0.2-0.8 0.5-0.3 0.4-0.5 0.8-0.2 0.5-0.2 1 0 0.5 0.2 1 0.2 0.4 0.5 0.8 0.4 0.3 0.8 0.5 0.5 0.2 1 0.2 0.5 0 1-0.2z"/>
</svg>