<svg version="1.2" xmlns="http://www.w3.org/2000/svg" viewBox="0 0 24 24" width="24" height="24">
	<title>phone (1)-svg</title>
	<style>
		.s0 { fill: #2f7393 } 
	</style>
	<path id="Layer" class="s0" d="m6.6 10.8c1.5 2.8 3.8 5.1 6.6 6.6l2.2-2.2c0.3-0.3 0.7-0.4 1-0.3q1.7 0.6 3.6 0.6 0.2 0 0.4 0.1 0.2 0.1 0.3 0.2 0.1 0.1 0.2 0.3 0.1 0.2 0.1 0.4v3.5q0 0.2-0.1 0.4-0.1 0.2-0.2 0.3-0.1 0.1-0.3 0.2-0.2 0.1-0.4 0.1c-2.2 0-4.4-0.4-6.5-1.3-2.1-0.8-3.9-2.1-5.5-3.7-1.6-1.6-2.9-3.4-3.7-5.5-0.9-2.1-1.3-4.3-1.3-6.5q0-0.2 0.1-0.4 0.1-0.2 0.2-0.3 0.1-0.1 0.3-0.2 0.2-0.1 0.4-0.1h3.5q0.2 0 0.4 0.1 0.2 0.1 0.3 0.2 0.1 0.1 0.2 0.3 0.1 0.2 0.1 0.4 0 1.9 0.6 3.6c0.1 0.3 0 0.7-0.3 1z"/>
</svg>