<svg height="24" viewBox="0 0 24 24" width="24" xmlns="http://www.w3.org/2000/svg"><path d="m22 12c0 1.3-.3 2.6-.8 3.8q-.8 1.8-2.1 3.3-1.5 1.4-3.3 2.1c-1.2.5-2.5.8-3.8.8s-2.6-.3-3.8-.8q-1.8-.7-3.3-2.1-1.4-1.5-2.1-3.3c-.5-1.2-.8-2.5-.8-3.8s.3-2.6.8-3.8q.7-1.8 2.1-3.3 1.5-1.4 3.3-2.1c1.2-.5 2.5-.8 3.8-.8q2 0 3.8.7l-1.6 1.6q-1.1-.3-2.2-.3-1.6 0-3.1.6-1.4.6-2.6 1.7-1.1 1.2-1.7 2.6-.6 1.5-.6 3.1 0 1.6.6 3.1.6 1.4 1.7 2.6 1.2 1.1 2.6 1.7 1.5.6 3.1.6 1.6 0 3.1-.6 1.4-.6 2.6-1.7 1.1-1.2 1.7-2.6.6-1.5.6-3.1m-9 1.2 8.6-8.6 1.4 1.4-10 10-4.5-4.5 1.4-1.4z" fill="#2f7393" fill-rule="evenodd"/></svg>