<svg version="1.2" xmlns="http://www.w3.org/2000/svg" viewBox="0 0 24 24" width="48" height="48">
	<title>emoticon-excited-outline-svg</title>
	<style>
		.s0 { fill: #2f7393 } 
	</style>
	<path id="Layer" fill-rule="evenodd" class="s0" d="m22 12c0 1.3-0.3 2.6-0.8 3.8-0.5 1.2-1.2 2.3-2.1 3.3-1 0.9-2.1 1.6-3.3 2.1-1.2 0.5-2.5 0.8-3.8 0.8-5.5 0-10-4.5-10-10 0-5.5 4.5-10 10-10 5.5 0 10 4.5 10 10zm-6.9 7.4q1.4-0.6 2.6-1.7 1.1-1.2 1.7-2.6 0.6-1.5 0.6-3.1 0-1.6-0.6-3.1-0.6-1.4-1.7-2.6-1.2-1.1-2.6-1.7-1.5-0.6-3.1-0.6-1.6 0-3.1 0.6-1.4 0.6-2.6 1.7-1.1 1.2-1.7 2.6-0.6 1.5-0.6 3.1 0 1.6 0.6 3.1 0.6 1.4 1.7 2.6 1.2 1.1 2.6 1.7 1.5 0.6 3.1 0.6 1.6 0 3.1-0.6zm0-11.6l2.1 2.1-1 1.1-1.1-1.1-1 1.1-1.1-1.1zm-7.3 3.2l-1.1-1 2.2-2.2 2.1 2.2-1.1 1-1-1zm-1 3h10.3c-0.9 2-2.8 3.5-5.2 3.5-2.3 0-4.3-1.5-5.1-3.5z"/>
</svg>