<svg height="48" viewBox="0 0 24 24" width="48" xmlns="http://www.w3.org/2000/svg"><path d="m22 12c0 1.3-.3 2.6-.8 3.8s-1.2 2.3-2.1 3.3c-1 .9-2.1 1.6-3.3 2.1s-2.5.8-3.8.8c-5.5 0-10-4.5-10-10s4.5-10 10-10 10 4.5 10 10zm-6.9 7.4q1.4-.6 2.6-1.7 1.1-1.2 1.7-2.6.6-1.5.6-3.1 0-1.6-.6-3.1-.6-1.4-1.7-2.6-1.2-1.1-2.6-1.7-1.5-.6-3.1-.6-1.6 0-3.1.6-1.4.6-2.6 1.7-1.1 1.2-1.7 2.6-.6 1.5-.6 3.1 0 1.6.6 3.1.6 1.4 1.7 2.6 1.2 1.1 2.6 1.7 1.5.6 3.1.6 1.6 0 3.1-.6zm0-11.6 2.1 2.1-1 1.1-1.1-1.1-1 1.1-1.1-1.1zm-7.3 3.2-1.1-1 2.2-2.2 2.1 2.2-1.1 1-1-1zm-1 3h10.3c-.9 2-2.8 3.5-5.2 3.5-2.3 0-4.3-1.5-5.1-3.5z" fill="#2f7393" fill-rule="evenodd"/></svg>