<svg xmlns="http://www.w3.org/2000/svg" xmlns:xlink="http://www.w3.org/1999/xlink" version="1.1" viewBox="0 765.7 76.37 76.3">
<defs>
<clipPath id="clip1">
  <path d="M 0 765.703125 L 76.371094 765.703125 L 76.371094 842 L 0 842 Z M 0 765.703125 "/>
</clipPath>
</defs>
<g id="surface1">
<g clip-path="url(#clip1)" clip-rule="nonzero">
<path style=" stroke:none;fill-rule:nonzero;fill:rgb(18.516541%,45.068359%,57.530212%);fill-opacity:1;" d="M 59.800781 781.976562 C 59.589844 782.410156 59.320312 782.746094 58.9375 783.039062 C 58.179688 783.617188 57.160156 783.851562 56.261719 783.960938 C 55.257812 784.089844 54.265625 784.085938 53.261719 783.992188 C 52.441406 783.921875 51.445312 783.773438 50.640625 783.59375 C 50.230469 783.5 49.832031 783.386719 49.433594 783.246094 C 49.03125 783.105469 48.648438 782.949219 48.292969 782.695312 C 47.871094 782.390625 47.574219 782 47.34375 781.535156 C 47.308594 781.464844 47.277344 781.394531 47.246094 781.324219 C 47.214844 781.257812 47.191406 781.191406 47.160156 781.121094 C 47.109375 781.003906 47.046875 780.898438 46.96875 780.792969 C 46.8125 780.589844 46.605469 780.417969 46.367188 780.304688 C 46.261719 780.25 46.152344 780.210938 46.035156 780.183594 C 45.921875 780.15625 45.808594 780.144531 45.695312 780.132812 C 45.460938 780.121094 45.222656 780.113281 44.988281 780.109375 C 44.515625 780.097656 44.046875 780.113281 43.574219 780.140625 C 42.769531 780.1875 41.96875 780.273438 41.171875 780.382812 C 41.171875 780.046875 41.175781 779.710938 41.179688 779.375 C 41.195312 777.417969 41.214844 775.460938 41.230469 773.503906 C 42.96875 773.296875 44.699219 773.179688 46.453125 773.203125 C 48.320312 773.222656 50.238281 773.40625 52.0625 773.828125 C 52.972656 774.039062 53.859375 774.308594 54.730469 774.664062 C 55.59375 775.015625 56.484375 775.46875 57.253906 776 C 58.027344 776.527344 58.738281 777.175781 59.265625 777.964844 C 59.777344 778.726562 60.140625 779.671875 60.125 780.613281 C 60.113281 781.089844 60.007812 781.550781 59.800781 781.976562 Z M 57.363281 805.078125 C 57.15625 806.582031 56.636719 808.003906 55.804688 809.277344 C 54.972656 810.539062 53.871094 811.617188 52.683594 812.527344 C 51.507812 813.441406 50.171875 814.246094 48.847656 814.925781 C 46.152344 816.304688 43.648438 817.121094 40.851562 818.109375 C 40.863281 816.414062 40.878906 814.691406 40.890625 812.941406 C 42.234375 812.417969 43.546875 811.84375 44.832031 811.1875 C 45.5625 810.8125 46.277344 810.414062 46.976562 809.988281 C 47.695312 809.550781 48.390625 809.097656 49.035156 808.550781 C 49.640625 808.039062 50.203125 807.441406 50.59375 806.734375 C 50.992188 806.015625 51.167969 805.253906 51.175781 804.4375 C 51.1875 803.609375 51.019531 802.765625 50.703125 802 C 50.382812 801.226562 49.941406 800.59375 49.339844 800.011719 C 48.164062 798.871094 46.566406 798.164062 45.050781 797.695312 C 43.503906 797.222656 41.933594 796.972656 40.335938 796.789062 C 39.53125 796.695312 38.726562 796.617188 37.921875 796.535156 C 37.117188 796.453125 36.316406 796.363281 35.515625 796.265625 C 33.902344 796.066406 32.296875 795.835938 30.699219 795.523438 C 29.113281 795.21875 27.554688 794.84375 26.011719 794.375 C 24.472656 793.910156 22.890625 793.308594 21.511719 792.453125 C 20.121094 791.582031 18.953125 790.464844 18.226562 788.953125 C 17.871094 788.21875 17.621094 787.394531 17.578125 786.570312 C 17.535156 785.734375 17.703125 785.019531 18.074219 784.277344 C 18.4375 783.554688 18.957031 782.898438 19.5 782.316406 C 20.035156 781.742188 20.710938 781.121094 21.308594 780.613281 C 22.546875 779.574219 23.859375 778.683594 25.273438 777.902344 C 26.703125 777.117188 28.179688 776.472656 29.71875 775.941406 C 31.121094 775.449219 32.542969 775.066406 33.984375 774.738281 C 34.003906 777.1875 34.027344 779.582031 34.046875 781.804688 C 32.738281 782.167969 31.464844 782.597656 30.226562 783.183594 C 29.535156 783.511719 28.875 783.878906 28.242188 784.308594 C 27.671875 784.691406 26.949219 785.199219 26.679688 785.914062 C 26.542969 786.28125 26.53125 786.695312 26.613281 787.070312 C 26.703125 787.457031 26.871094 787.769531 27.171875 788.035156 C 27.457031 788.28125 27.8125 788.457031 28.152344 788.601562 C 28.507812 788.75 28.867188 788.882812 29.230469 789.011719 C 30.644531 789.5 32.082031 789.832031 33.550781 790.101562 C 36.367188 790.625 39.675781 791.027344 42.5 791.488281 C 45.417969 791.960938 48.476562 792.550781 51.160156 793.984375 C 52.492188 794.695312 53.734375 795.621094 54.761719 796.734375 C 55.796875 797.851562 56.574219 799.113281 57.019531 800.582031 C 57.46875 802.03125 57.574219 803.582031 57.363281 805.078125 Z M 34.511719 838.8125 C 31.382812 838.09375 24.902344 834.296875 23.144531 829.238281 C 22.652344 827.730469 22.59375 826.285156 22.972656 824.914062 C 23.355469 823.539062 24.0625 822.28125 25.050781 821.128906 C 26.042969 819.980469 27.125 819.0625 28.105469 818.382812 C 29.082031 817.699219 30.25 817.042969 31.292969 816.527344 C 32.335938 816.019531 33.253906 815.648438 34.328125 815.332031 C 34.34375 817.136719 34.359375 818.902344 34.371094 820.648438 C 33.398438 821.035156 32.789062 821.320312 31.886719 821.855469 C 30.980469 822.394531 29.792969 823.183594 29.089844 824.183594 C 28.386719 825.1875 28.105469 826.195312 28.246094 827.378906 C 28.386719 828.5625 28.796875 829.589844 29.476562 830.457031 C 30.160156 831.324219 30.925781 832.089844 31.785156 832.753906 C 32.640625 833.414062 33.550781 834 34.511719 834.5 C 34.511719 835.9375 34.511719 837.375 34.511719 838.8125 Z M 76.09375 799.226562 C 75.464844 794.050781 73.78125 789.054688 71.144531 784.554688 C 68.507812 780.050781 64.980469 776.136719 60.773438 773.050781 C 56.890625 770.203125 52.511719 768.117188 47.855469 766.898438 C 45.3125 766.234375 42.71875 765.832031 40.109375 765.703125 C 40.105469 766.148438 40.105469 766.597656 40.101562 767.046875 C 40.097656 767.585938 40.09375 768.125 40.089844 768.664062 C 40.078125 769.746094 40.070312 770.824219 40.058594 771.90625 C 40 778.714844 39.945312 785.53125 39.886719 789.894531 C 38.890625 789.75 37.890625 789.605469 36.890625 789.453125 C 36.363281 789.375 35.835938 789.292969 35.308594 789.207031 C 35.25 784.859375 35.195312 778.097656 35.140625 771.339844 C 35.121094 769.484375 35.109375 767.632812 35.09375 765.777344 C 34.585938 765.820312 34.082031 765.871094 33.578125 765.929688 C 28.398438 766.5625 23.40625 768.242188 18.902344 770.878906 C 14.398438 773.515625 10.484375 777.042969 7.398438 781.25 C 4.550781 785.132812 2.464844 789.507812 1.246094 794.167969 C 0.0273438 798.824219 -0.300781 803.664062 0.28125 808.445312 C 0.910156 813.625 2.59375 818.617188 5.226562 823.121094 C 7.863281 827.625 11.390625 831.539062 15.597656 834.625 C 19.480469 837.476562 23.859375 839.558594 28.519531 840.777344 C 30.886719 841.398438 33.300781 841.789062 35.730469 841.945312 C 35.71875 840.25 35.703125 838.554688 35.691406 836.859375 C 35.585938 824.707031 35.484375 812.558594 35.382812 797.441406 C 35.714844 797.480469 36.042969 797.519531 36.375 797.558594 C 36.738281 797.597656 37.101562 797.640625 37.46875 797.675781 C 37.972656 797.730469 38.476562 797.78125 38.984375 797.835938 C 39.261719 797.859375 39.539062 797.890625 39.816406 797.917969 C 39.710938 813.691406 39.601562 826.507812 39.492188 839.320312 C 39.484375 840.214844 39.480469 841.109375 39.472656 842 C 40.582031 841.964844 41.6875 841.878906 42.796875 841.742188 C 47.972656 841.113281 52.96875 839.429688 57.46875 836.796875 C 61.972656 834.160156 65.890625 830.632812 68.976562 826.425781 C 71.824219 822.542969 73.90625 818.164062 75.128906 813.503906 C 76.347656 808.847656 76.671875 804.007812 76.09375 799.226562 "/>
</g>
<path style=" stroke:none;fill-rule:nonzero;fill:rgb(18.516541%,45.068359%,57.530212%);fill-opacity:1;" d="M 51.8125 776.46875 C 51.09375 776.601562 50.613281 777.292969 50.742188 778.011719 C 50.871094 778.734375 51.558594 779.210938 52.28125 779.082031 C 53.003906 778.953125 53.484375 778.265625 53.351562 777.542969 C 53.222656 776.820312 52.535156 776.34375 51.8125 776.46875 "/>
</g>
</svg>