<svg viewBox="0 765.7 76.37 76.3" xmlns="http://www.w3.org/2000/svg" xmlns:xlink="http://www.w3.org/1999/xlink"><clipPath id="a"><path d="m0 765.703125h76.371094v76.296875h-76.371094zm0 0"/></clipPath><g clip-path="url(#a)"><path d="m59.800781 781.976562c-.210937.433594-.480469.769532-.863281 1.0625-.757812.578126-1.777344.8125-2.675781.921876-1.003907.128906-1.996094.125-3 .03125-.820313-.070313-1.816407-.21875-2.621094-.398438-.410156-.09375-.808594-.207031-1.207031-.347656-.402344-.140625-.785156-.296875-1.140625-.550782-.421875-.304687-.71875-.695312-.949219-1.160156-.035156-.070312-.066406-.140625-.097656-.210937-.03125-.066407-.054688-.132813-.085938-.203125-.050781-.117188-.113281-.222656-.191406-.328125-.15625-.203125-.363281-.375-.601562-.488281-.105469-.054688-.214844-.09375-.332032-.121094-.113281-.027344-.226562-.039063-.339844-.050782-.234374-.011718-.472656-.019531-.707031-.023437-.472656-.011719-.941406.003906-1.414062.03125-.804688.046875-1.605469.132813-2.402344.242187 0-.335937.003906-.671874.007813-1.007812.015624-1.957031.035156-3.914062.050781-5.871094 1.738281-.207031 3.46875-.324218 5.222656-.300781 1.867187.019531 3.785156.203125 5.609375.625.910156.210937 1.796875.480469 2.667969.835937.863281.351563 1.753906.804688 2.523437 1.335938.773438.527344 1.484375 1.175781 2.011719 1.964844.511719.761718.875 1.707031.859375 2.648437-.011719.476563-.117188.9375-.324219 1.363281zm-2.4375 23.101563c-.207031 1.503906-.726562 2.925781-1.558593 4.199219-.832032 1.261718-1.933594 2.339844-3.121094 3.25-1.175782.914062-2.511719 1.71875-3.835938 2.398437-2.695312 1.378907-5.199218 2.195313-7.996094 3.183594.011719-1.695313.027344-3.417969.039063-5.167969 1.34375-.523437 2.65625-1.097656 3.941406-1.753906.730469-.375 1.445313-.773438 2.144531-1.199219.71875-.4375 1.414063-.890625 2.058594-1.4375.605469-.511719 1.167969-1.109375 1.558594-1.816406.398438-.71875.574219-1.480469.582031-2.296875.011719-.828125-.15625-1.671875-.472656-2.4375-.320313-.773438-.761719-1.40625-1.363281-1.988281-1.175782-1.140625-2.773438-1.847657-4.289063-2.316407-1.546875-.472656-3.117187-.722656-4.714843-.90625-.804688-.09375-1.609376-.171874-2.414063-.253906-.804687-.082031-1.605469-.171875-2.40625-.269531-1.613281-.199219-3.21875-.429687-4.816406-.742187-1.585938-.304688-3.144531-.679688-4.6875-1.148438-1.539063-.464844-3.121094-1.066406-4.5-1.921875-1.390625-.871094-2.558594-1.988281-3.285157-3.5-.355468-.734375-.605468-1.558594-.648437-2.382813-.042969-.835937.125-1.550781.496094-2.292968.363281-.722656.882812-1.378906 1.425781-1.960938.535156-.574218 1.210938-1.195312 1.808594-1.703125 1.238281-1.039062 2.550781-1.929687 3.964844-2.710937 1.429687-.785156 2.90625-1.429688 4.445312-1.960938 1.402344-.492187 2.824219-.875 4.265625-1.203125.019531 2.449219.042969 4.84375.0625 7.066407-1.308594.363281-2.582031.792968-3.820313 1.378906-.691406.328125-1.351562.695312-1.984374 1.125-.570313.382812-1.292969.890625-1.5625 1.605468-.136719.367188-.148438.78125-.066407 1.15625.089844.386719.257813.699219.558594.964844.285156.246094.640625.421875.980469.566406.355468.148438.714844.28125 1.078125.410157 1.414062.488281 2.851562.820312 4.320312 1.089843 2.816407.523438 6.125.925782 8.949219 1.386719 2.917969.472657 5.976562 1.0625 8.660156 2.496094 1.332032.710937 2.574219 1.636719 3.601563 2.75 1.035156 1.117187 1.8125 2.378906 2.257812 3.847656.449219 1.449219.554688 3 .34375 4.496094zm-22.851562 33.734375c-3.128907-.71875-9.609375-4.515625-11.367188-9.574219-.492187-1.507812-.550781-2.953125-.171875-4.324219.382813-1.375 1.089844-2.632812 2.078125-3.785156.992188-1.148437 2.074219-2.066406 3.054688-2.746094.976562-.683593 2.144531-1.339843 3.1875-1.855468 1.042969-.507813 1.960937-.878906 3.035156-1.195313.015625 1.804688.03125 3.570313.042969 5.316407-.972656.386718-1.582032.671874-2.484375 1.207031-.90625.539062-2.09375 1.328125-2.796875 2.328125-.703125 1.003906-.984375 2.011718-.84375 3.195312s.550781 2.210938 1.230468 3.078125c.683594.867188 1.449219 1.632813 2.308594 2.296875.855469.660156 1.765625 1.246094 2.726563 1.746094zm41.582031-39.585938c-.628906-5.175781-2.3125-10.171874-4.949219-14.671874-2.636719-4.503907-6.164062-8.417969-10.371093-11.503907-3.882813-2.847656-8.261719-4.933593-12.917969-6.152343-2.542969-.664063-5.136719-1.066407-7.746094-1.195313-.003906.445313-.003906.894531-.007813 1.34375-.003906.539063-.007812 1.078125-.011718 1.617187-.011719 1.082032-.019532 2.160157-.03125 3.242188-.058594 6.808594-.113282 13.625-.171875 17.988281-.996094-.144531-1.996094-.289062-2.996094-.441406-.527344-.078125-1.054687-.160156-1.582031-.246094-.058594-4.347656-.113282-11.109375-.167969-17.867187-.019531-1.855469-.03125-3.707032-.046875-5.5625-.507812.042968-1.011719.09375-1.515625.152344-5.179687.632812-10.171875 2.3125-14.675781 4.949218-4.503906 2.636719-8.417969 6.164063-11.503906 10.371094-2.847657 3.882812-4.933594 8.257812-6.152344 12.917969-1.2187502 4.65625-1.546875 9.496093-.964844 14.277343.628906 5.179688 2.3125 10.171876 4.945312 14.675782 2.636719 4.503906 6.164063 8.417968 10.371094 11.503906 3.882813 2.851562 8.261719 4.933594 12.921875 6.152344 2.367188.621094 4.78125 1.011718 7.210938 1.167968-.011719-1.695312-.027344-3.390624-.039063-5.085937-.105468-12.152344-.207031-24.300781-.308594-39.417969.332032.039063.660157.078125.992188.117188.363281.039062.726562.082031 1.09375.117187.503906.054688 1.007812.105469 1.515625.160157.277344.023437.554687.054687.832031.082031-.105468 15.773437-.214844 28.589843-.324218 41.402343-.007813.894532-.011719 1.789063-.019532 2.679688 1.109375-.035156 2.214844-.121094 3.324219-.257812 5.175781-.628907 10.171875-2.3125 14.671875-4.945313 4.503906-2.636719 8.421875-6.164063 11.507812-10.371094 2.847657-3.882812 4.929688-8.261719 6.152344-12.921875 1.21875-4.65625 1.542969-9.496094.964844-14.277344" fill="#2f7393"/></g><path d="m51.8125 776.46875c-.71875.132812-1.199219.824219-1.070312 1.542969.128906.722656.816406 1.199219 1.539062 1.070312.722656-.128906 1.203125-.816406 1.070312-1.539062-.128906-.722657-.816406-1.199219-1.539062-1.074219" fill="#2f7393"/></svg>