<svg height="24" viewBox="0 0 77 77" width="24" xmlns="http://www.w3.org/2000/svg" xmlns:xlink="http://www.w3.org/1999/xlink"><clipPath id="a"><path d="m0 .7h76.37v76.3h-76.37z"/></clipPath><g clip-path="url(#a)"><path d="m75.1 48.5c-1.2 4.7-3.3 9-6.1 12.9-3.1 4.2-7 7.8-11.5 10.4s-9.5 4.3-14.7 4.9q-1.7.2-3.3.3 0-1.3 0-2.7c.1-12.8.2-25.6.3-41.4q-.4 0-.8-.1-.8 0-1.5-.1-.6-.1-1.1-.1-.5-.1-1-.2c.1 15.2.2 27.3.3 39.5q0 2.5 0 5-3.6-.2-7.2-1.1c-4.6-1.2-9-3.3-12.9-6.2-4.2-3.1-7.7-7-10.4-11.5-2.6-4.5-4.3-9.5-4.9-14.7-.6-4.7-.3-9.6.9-14.2 1.3-4.7 3.4-9.1 6.2-13 3.1-4.2 7-7.7 11.5-10.3 4.5-2.7 9.5-4.3 14.7-5q.7-.1 1.5-.1 0 2.8 0 5.5c.1 6.8.2 13.6.2 17.9q.8.1 1.6.3 1.5.2 3 .4c0-4.4.1-11.2.2-18q0-1.6 0-3.2 0-.8 0-1.7 0-.6 0-1.3 3.9.2 7.8 1.2c4.6 1.2 9 3.3 12.9 6.2 4.2 3 7.7 7 10.3 11.5 2.7 4.5 4.4 9.5 5 14.6.6 4.8.2 9.6-1 14.3zm-18.1-12.9c-.4-1.5-1.2-2.7-2.2-3.9-1.1-1.1-2.3-2-3.6-2.7-2.7-1.4-5.8-2-8.7-2.5-2.8-.5-6.1-.9-8.9-1.4-1.5-.3-3-.6-4.4-1.1q-.5-.2-1-.4c-.4-.1-.7-.3-1-.6q-.5-.4-.6-.9c-.1-.4-.1-.8.1-1.2.2-.7 1-1.2 1.5-1.6q1-.6 2-1.1c1.3-.6 2.5-1 3.8-1.4 0-2.2 0-4.6 0-7.1q-2.2.5-4.3 1.2-2.3.8-4.4 2-2.1 1.2-4 2.7c-.6.5-1.3 1.1-1.8 1.7s-1.1 1.3-1.4 2c-.4.7-.6 1.4-.5 2.3 0 .8.3 1.6.6 2.4.8 1.5 1.9 2.6 3.3 3.5 1.4.8 3 1.4 4.5 1.9q2.3.7 4.7 1.1 2.4.5 4.8.8 1.2.1 2.4.2 1.2.2 2.4.3c1.6.2 3.2.4 4.8.9 1.5.5 3.1 1.2 4.2 2.3.6.6 1.1 1.2 1.4 2s.5 1.6.5 2.4q0 1.3-.6 2.3c-.4.7-1 1.3-1.6 1.9-.6.5-1.3 1-2 1.4q-1.1.6-2.2 1.2-1.9 1-3.9 1.7 0 2.7 0 5.2c2.7-1 5.3-1.8 7.9-3.2 1.4-.7 2.7-1.5 3.9-2.4s2.3-2 3.1-3.2c.8-1.3 1.4-2.7 1.6-4.2s.1-3.1-.4-4.5zm-22.5 33.9q-1.4-.8-2.7-1.7-1.3-1-2.3-2.3-1-1.3-1.3-3.1c-.1-1.2.2-2.2.9-3.2s1.9-1.8 2.8-2.3c.9-.6 1.5-.9 2.5-1.3q0-2.6-.1-5.3c-1 .3-2 .7-3 1.2s-2.2 1.2-3.2 1.9-2.1 1.6-3 2.7q-1.5 1.8-2.1 3.8-.6 2.1.1 4.3c1.8 5.1 8.3 8.9 11.4 9.6q0-2.1 0-4.3zm25.6-53.9c0-.9-.3-1.9-.8-2.6-.6-.8-1.3-1.5-2-2-.8-.5-1.7-1-2.6-1.3q-1.3-.6-2.6-.9c-1.9-.4-3.8-.6-5.6-.6q-2.7 0-5.3.3 0 2.9 0 5.9 0 .5 0 1 1.2-.2 2.4-.3.7 0 1.4 0 .3 0 .7 0 .2 0 .3.1.2 0 .4.1.3.2.6.5.1.1.2.3 0 .1 0 .2.1.1.1.2.4.7 1 1.2c.3.2.7.4 1.1.5q.6.3 1.2.4c.8.2 1.8.3 2.7.4q1.5.1 3 0c.9-.1 1.9-.4 2.6-1 .4-.3.7-.6.9-1q.3-.7.3-1.4z" fill="#626262" fill-rule="evenodd"/></g><circle cx="52" cy="12.8" fill="#626262" r="1.3"/></svg>